<?xml version="1.0" encoding="utf-8"?>
<!-- Generator: Adobe Illustrator 16.0.0, SVG Export Plug-In . SVG Version: 6.00 Build 0)  -->
<!DOCTYPE svg PUBLIC "-//W3C//DTD SVG 1.1//EN" "http://www.w3.org/Graphics/SVG/1.1/DTD/svg11.dtd">
<svg version="1.1" id="Layer_1" xmlns="http://www.w3.org/2000/svg" xmlns:xlink="http://www.w3.org/1999/xlink" x="0px" y="0px"
	 width="227.098px" height="26.798px" viewBox="0 0 227.098 26.798" enable-background="new 0 0 227.098 26.798"
	 xml:space="preserve">
<path fill="#F01B00" d="M20.725,8.08c-0.833-1.024-1.896-1.839-3.191-2.446c-1.295-0.606-2.617-0.911-3.964-0.911
	c-2.344,0-4.368,0.849-6.073,2.547c-1.705,1.698-2.558,3.722-2.558,6.07c0,2.506,0.87,4.627,2.61,6.363s3.864,2.605,6.373,2.605
	c1.242,0,2.466-0.293,3.674-0.877c1.207-0.586,2.208-1.367,3.005-2.346h5.607c-1.008,2.303-2.643,4.143-4.904,5.518
	c-2.262,1.375-4.781,2.062-7.559,2.062c-3.809,0-7.052-1.279-9.729-3.84S0,17.164,0,13.523c0-3.65,1.338-6.757,4.016-9.317
	c2.678-2.56,5.921-3.841,9.729-3.841c2.801,0,5.341,0.699,7.62,2.096c2.279,1.397,3.935,3.271,4.966,5.619H20.725L20.725,8.08z"/>
<path fill="#F01B00" d="M44.087,9.524c-2.068-1.976-4.579-2.964-7.533-2.964c-2.941,0-5.446,0.988-7.514,2.964
	c-2.068,1.976-3.103,4.366-3.103,7.172c0,2.805,1.034,5.191,3.103,7.156c2.068,1.963,4.573,2.945,7.514,2.945
	c2.954,0,5.464-0.982,7.533-2.945c2.068-1.965,3.103-4.352,3.103-7.156C47.19,13.89,46.155,11.5,44.087,9.524z M40.703,20.937
	c-1.113,1.137-2.496,1.705-4.148,1.705c-1.641,0-3.018-0.568-4.13-1.705c-1.114-1.135-1.67-2.549-1.67-4.24
	c0-1.693,0.557-3.111,1.67-4.259c1.113-1.146,2.49-1.72,4.13-1.72c1.653,0,3.035,0.574,4.148,1.72
	c1.114,1.147,1.67,2.565,1.67,4.259C42.374,18.388,41.817,19.802,40.703,20.937z"/>
<path fill="#F01B00" d="M75.817,26.166h-2.408V15.427c0-1.547-0.326-2.723-0.978-3.523c-0.652-0.802-1.601-1.203-2.845-1.203
	c-1.327,0-2.32,0.457-2.978,1.37c-0.658,0.913-0.986,2.282-0.986,4.108v9.986h-2.391h-2.408V15.945c0-1.715-0.333-3.017-1-3.907
	c-0.667-0.891-1.643-1.336-2.929-1.336c-1.286,0-2.251,0.457-2.894,1.37c-0.644,0.913-0.965,2.282-0.965,4.108v9.986h-2.391h-2.408
	V7.195h2.232h2.232v1.569c1.462-1.48,3.193-2.215,5.195-2.204c2.211,0,4.054,0.801,5.528,2.404l0.351,0.4l0.387-0.4
	c1.561-1.603,3.579-2.404,6.054-2.404c2.452,0,4.397,0.729,5.834,2.187c1.438,1.458,2.156,3.435,2.156,5.928v11.49H75.817
	L75.817,26.166z"/>
<path fill="#F01B00" d="M107.855,26.166h-2.408V15.427c0-1.547-0.326-2.723-0.978-3.523c-0.652-0.802-1.6-1.203-2.845-1.203
	c-1.328,0-2.32,0.457-2.978,1.37c-0.658,0.913-0.987,2.282-0.987,4.108v9.986H95.27h-2.408V15.945c0-1.715-0.333-3.017-1-3.907
	c-0.667-0.891-1.643-1.336-2.929-1.336s-2.25,0.457-2.894,1.37c-0.644,0.913-0.965,2.282-0.965,4.108v9.986h-2.391h-2.408V7.195
	h2.232h2.232v1.569c1.462-1.48,3.194-2.215,5.195-2.204c2.211,0,4.054,0.801,5.528,2.404l0.352,0.4l0.387-0.4
	c1.561-1.603,3.578-2.404,6.054-2.404c2.452,0,4.397,0.729,5.834,2.187c1.437,1.458,2.156,3.435,2.156,5.928v11.49H107.855
	L107.855,26.166z"/>
<path fill="#F01B00" d="M128.028,7.195v2.087c-1.852-1.814-4.107-2.721-6.768-2.721c-2.754,0-5.097,0.988-7.031,2.964
	c-1.934,1.976-2.9,4.366-2.9,7.172c0,2.805,0.966,5.191,2.9,7.156c1.934,1.963,4.271,2.945,7.014,2.945
	c2.648-0.01,4.91-0.912,6.785-2.705v2.072h2.215h2.197V7.195H128.028z M126.227,20.955c-1.133,1.146-2.535,1.721-4.211,1.721
	c-1.664,0-3.059-0.574-4.184-1.721s-1.687-2.566-1.687-4.258c0-1.703,0.562-3.131,1.687-4.284c1.125-1.152,2.525-1.729,4.201-1.729
	s3.076,0.574,4.201,1.72c1.125,1.147,1.688,2.571,1.688,4.274S127.358,19.808,126.227,20.955z"/>
<path fill="#F01B00" d="M149.625,26.166h-2.408V16.011c0-1.736-0.34-3.055-1.02-3.957c-0.68-0.902-1.67-1.353-2.971-1.353
	c-1.383,0-2.422,0.457-3.113,1.37c-0.691,0.913-1.035,2.282-1.035,4.108v9.986h-2.393h-2.406V7.195h2.232h2.232v1.636
	c1.547-1.514,3.398-2.271,5.553-2.271c2.369,0,4.246,0.759,5.635,2.279c1.389,1.52,2.082,3.571,2.082,6.154v11.172H149.625
	L149.625,26.166z"/>
<path fill="#F01B00" d="M171.977,0.866h-2.391v7.848c-1.676-1.413-3.656-2.131-5.941-2.153c-2.848,0-5.273,0.988-7.277,2.964
	s-3.006,4.366-3.006,7.172c0,2.805,0.963,5.191,2.891,7.156c1.928,1.963,4.258,2.945,6.988,2.945c2.625,0,4.869-0.895,6.732-2.688
	v2.055h2.215h2.197v-25.3H171.977z M168.18,20.955c-1.125,1.146-2.52,1.721-4.184,1.721c-1.652,0-3.035-0.574-4.148-1.721
	s-1.67-2.566-1.67-4.258c0-1.703,0.559-3.131,1.68-4.284c1.117-1.152,2.504-1.729,4.156-1.729c1.664,0,3.055,0.574,4.176,1.72
	c1.117,1.147,1.678,2.571,1.678,4.274S169.305,19.808,168.18,20.955z"/>
<path fill="#F01B00" d="M226.711,22.341c-1.07,0-2.211-0.262-3.422-0.785c2.1-2.305,3.15-4.982,3.15-8.033
	c0-3.65-1.488-6.757-4.465-9.317c-2.979-2.56-6.594-3.841-10.848-3.841c-4.242,0-7.855,1.281-10.838,3.841
	c-2.984,2.561-4.477,5.667-4.477,9.317c0,3.641,1.492,6.742,4.477,9.303c2.982,2.561,6.596,3.84,10.838,3.84
	c3.184,0,6.006-0.717,8.469-2.154c0.656,0.379,1.275,0.701,1.855,0.969c1.701,0.803,3.203,1.203,4.506,1.203l1.141,0.066v-4.324
	L226.711,22.341z M211.127,22.308c-2.76,0-5.094-0.852-7-2.557c-0.504-0.443-0.928-0.906-1.277-1.385l0.367-0.1
	c0.58-0.135,1.289-0.201,2.127-0.201c1.689,0,3.307,0.277,4.854,0.836c1.535,0.578,3.184,1.475,4.951,2.688
	C213.924,22.068,212.583,22.308,211.127,22.308z M218.958,18.935l-0.58-0.436c-2.203-1.682-4.344-2.896-6.42-3.648
	c-2.074-0.752-4.324-1.127-6.748-1.127c-1.432,0-2.746,0.145-3.943,0.434l-0.02-0.635c0-2.459,0.957-4.542,2.871-6.245
	c1.914-1.704,4.25-2.556,7.01-2.556c2.758,0,5.094,0.852,7.008,2.556c1.914,1.703,2.871,3.785,2.871,6.245
	C221.02,15.595,220.336,17.398,218.958,18.935z"/>
<polygon fill="#F01B00" points="193.309,3.691 193.309,0 176.543,0 176.543,3.691 182.338,3.691 182.338,22.56 176.543,22.56 
	176.543,26.251 193.309,26.251 193.309,22.56 187.752,22.56 187.752,3.691 "/>
</svg>
